<?xml version="1.0" encoding="utf-8"?>
<!-- Generator: Adobe Illustrator 23.0.5, SVG Export Plug-In . SVG Version: 6.00 Build 0)  -->
<svg version="1.1" id="Layer_3" xmlns="http://www.w3.org/2000/svg" xmlns:xlink="http://www.w3.org/1999/xlink" x="0px" y="0px"
	 viewBox="0 0 354 354" style="enable-background:new 0 0 354 354;" xml:space="preserve">
<style type="text/css">
	.st0{fill:#FFC60B;stroke:#FFC60B;stroke-width:6;stroke-linecap:round;stroke-linejoin:round;stroke-miterlimit:10;}
	.st1{fill:#F7941D;stroke:#F7941D;stroke-width:6;stroke-linecap:round;stroke-linejoin:round;stroke-miterlimit:10;}
	.st2{fill:#FFF200;}
</style>
<g>
	<g>
		<g>
			<polygon class="st0" points="205.2,85 177.2,3 149.2,85 			"/>
			<polygon class="st0" points="148.8,269.3 177.6,351 204.8,268.7 			"/>
		</g>
		<g>
			<polygon class="st1" points="167.8,81.2 110.6,16.1 116.1,102.6 			"/>
			<polygon class="st1" points="186.2,273.1 244.2,337.5 237.7,251.1 			"/>
		</g>
		<g>
			<polygon class="st0" points="131.9,92 54.1,53.8 92.3,131.6 			"/>
			<polygon class="st0" points="222.3,262.2 300.5,299.6 261.5,222.2 			"/>
		</g>
		<g>
			<polygon class="st1" points="102.8,115.7 16.3,110.2 81.3,167.4 			"/>
			<polygon class="st1" points="251.4,238.4 338,243 272.3,186.4 			"/>
		</g>
		<g>
			<polygon class="st0" points="85,148.8 3,176.8 85,204.8 			"/>
			<polygon class="st0" points="269.3,205.2 351,176.3 268.7,149.2 			"/>
		</g>
		<g>
			<polygon class="st1" points="81.2,186.1 16.1,243.4 102.6,237.9 			"/>
			<polygon class="st1" points="273,167.7 337.5,109.8 251.1,116.2 			"/>
		</g>
		<g>
			<polygon class="st0" points="92,222.1 53.8,299.9 131.6,261.7 			"/>
			<polygon class="st0" points="262.2,131.7 299.5,53.5 222.2,92.5 			"/>
		</g>
		<g>
			<polygon class="st1" points="115.7,251.2 110.2,337.6 167.4,272.6 			"/>
			<polygon class="st1" points="238.4,102.5 243,16 186.4,81.6 			"/>
		</g>
		<g>
			<circle class="st2" cx="177" cy="177" r="106"/>
			<path class="st2" d="M283.3,177c0,0,0,0.7,0,1.9c-0.1,1.3,0,3.1-0.2,5.6c-0.3,4.9-1.1,12.1-3.4,20.9c-2.3,8.8-6.1,19.4-12.9,30.4
				c-3.4,5.5-7.5,11-12.4,16.3s-10.6,10.5-17.2,15c-3.3,2.2-6.7,4.5-10.4,6.4c-0.9,0.5-1.9,1-2.8,1.4c-1,0.4-1.9,0.9-2.9,1.3
				c-1.9,0.9-3.9,1.7-5.9,2.5c-1,0.4-2,0.7-3.1,1.1c-1,0.4-2.1,0.7-3.1,1c-1.1,0.3-2.1,0.6-3.2,0.9l-1.6,0.4l-1.6,0.4
				c-1.1,0.2-2.2,0.5-3.3,0.7s-2.2,0.4-3.3,0.6c-2.2,0.4-4.5,0.7-6.8,1c-1.1,0.2-2.3,0.2-3.4,0.3c-1.2,0.1-2.3,0.1-3.5,0.2
				c-1.2,0-2.3,0-3.5,0.1H177h-0.3h-0.2h-0.4h-0.9c-1.1,0-2.3-0.1-3.4-0.1c-1.2-0.1-2.4-0.2-3.6-0.3c-2.4-0.2-4.7-0.6-7.1-0.9
				c-4.7-0.8-9.5-1.9-14.1-3.4c-2.3-0.7-4.6-1.6-6.9-2.4c-1.1-0.5-2.3-0.9-3.4-1.4l-1.7-0.7l-1.7-0.8c-17.9-8.4-34-22-45.5-39.3
				c-11.5-17.2-18.2-38-18.6-59.1c0-2.7,0-5.2,0.2-7.9c0.1-1.3,0.1-2.7,0.3-4l0.4-3.9c0.7-5.2,1.7-10.5,3.2-15.6s3.3-10.1,5.5-14.9
				c2.2-4.8,4.7-9.4,7.6-13.8c11.5-17.6,28-31.4,46.3-39.7s38.3-10.9,56.6-8.7c2.3,0.3,4.6,0.6,6.8,1c1.1,0.2,2.2,0.4,3.3,0.6
				c1.1,0.3,2.2,0.5,3.3,0.8l1.6,0.4l1.6,0.5c1.1,0.3,2.1,0.6,3.2,0.9c1,0.3,2.1,0.7,3.1,1.1s2.1,0.7,3.1,1.1c2,0.8,4,1.6,5.9,2.5
				c1,0.5,1.9,0.9,2.9,1.3c0.9,0.5,1.9,1,2.8,1.5c3.7,1.9,7.1,4.2,10.4,6.4c6.6,4.6,12.2,9.8,17.1,15.1c4.9,5.3,9,10.9,12.4,16.3
				c6.8,10.9,10.6,21.6,12.9,30.4c2.3,8.9,3.1,16,3.3,20.9c0.2,2.4,0.2,4.3,0.2,5.6C283.3,176.3,283.3,177,283.3,177L283.3,177z
				 M282.7,177c0,0,0-0.6-0.1-1.9c-0.1-1.3,0-3.1-0.3-5.5c-0.3-4.8-1.2-12-3.8-20.7c-1.2-4.4-3-9.1-5.3-14c-2.3-5-5.2-10.1-8.8-15.2
				c-7.2-10.3-17.2-20.5-30.1-28.7c-6.4-4.1-13.6-7.6-21.2-10.5c-7.7-2.8-16-4.8-24.6-5.7c-1.1-0.2-2.1-0.2-3.2-0.3
				c-1.1-0.1-2.2-0.1-3.2-0.2c-1.1,0-2.3,0-3.4-0.1H177h-1.6c-1.1,0-2.2,0.1-3.3,0.1s-2.2,0.2-3.4,0.2c-2.3,0.1-4.5,0.5-6.8,0.7
				c-4.5,0.7-9,1.6-13.5,2.9c-2.3,0.6-4.4,1.4-6.7,2.1c-1.1,0.4-2.2,0.8-3.3,1.3l-1.7,0.6l-1.6,0.7c-8.7,3.8-17,8.8-24.5,15.1
				c-3.8,3.1-7.3,6.5-10.7,10.2c-3.3,3.6-6.4,7.6-9.2,11.7c-11.2,16.5-17.9,36.6-18.3,57.1c0,5.1,0.2,10.3,0.9,15.3
				c0.7,5.1,1.7,10.1,3.1,15.1c1.5,4.9,3.2,9.7,5.4,14.4c2.2,4.6,4.6,9.1,7.5,13.3c5.6,8.4,12.5,16,20.2,22.3s16.2,11.3,25.1,15
				l1.7,0.7l1.7,0.6c1.1,0.4,2.2,0.8,3.4,1.2c2.3,0.7,4.5,1.5,6.8,2c4.5,1.3,9.1,2.1,13.7,2.7c2.3,0.2,4.6,0.5,6.8,0.6
				c1.1,0.1,2.2,0.1,3.4,0.2c1.2,0,2.3,0,3.5,0h0.9h0.4h0.2c0.1,0,0,0,0.1,0l1.7-0.1c1.1,0,2.2-0.1,3.3-0.1c1.1-0.1,2.2-0.2,3.3-0.3
				c1.1-0.1,2.2-0.2,3.3-0.3c8.7-1.1,16.9-3.1,24.6-5.9c1.9-0.8,3.8-1.4,5.7-2.3c0.9-0.4,1.8-0.8,2.8-1.2c0.9-0.4,1.8-0.9,2.7-1.3
				c3.6-1.8,6.9-3.7,10.1-5.7c6.4-4.1,12.2-8.7,17.2-13.6s9.3-10,12.9-15.2c3.6-5.1,6.5-10.3,8.8-15.2s4.1-9.6,5.3-14
				c2.6-8.7,3.4-15.8,3.7-20.7c0.2-2.4,0.2-4.3,0.3-5.6C282.7,177.6,282.7,177,282.7,177L282.7,177z"/>
		</g>
	</g>
</g>
</svg>
